<mxfile host="app.diagrams.net" modified="2023-04-22T08:35:26.116Z" agent="Mozilla/5.0 (Windows NT 10.0; Win64; x64) AppleWebKit/537.36 (KHTML, like Gecko) Chrome/112.0.0.0 Safari/537.36" version="21.2.1" etag="81zR2eQZDZOVQEUL9R7C" type="github">
  <diagram name="Strona-1" id="wXcndjXiBrc1prwJTaua">
    <mxGraphModel>
      <root>
        <mxCell id="0" />
        <mxCell id="1" parent="0" />
      </root>
    </mxGraphModel>
  </diagram>
</mxfile>
